<?xml version="1.0" standalone="no"?>
<!DOCTYPE svg PUBLIC "-//W3C//DTD SVG 20010904//EN"
 "http://www.w3.org/TR/2001/REC-SVG-20010904/DTD/svg10.dtd">
<svg version="1.0" xmlns="http://www.w3.org/2000/svg"
 width="128.000000pt" height="128.000000pt" viewBox="0 0 128.000000 128.000000"
 preserveAspectRatio="xMidYMid meet">

<g transform="translate(0.000000,128.000000) scale(0.100000,-0.100000)"
fill="#000000" stroke="none">
<path d="M390 1185 l0 -85 65 0 c63 0 65 1 65 25 0 23 -4 25 -40 25 -39 0 -40
1 -40 35 0 34 1 35 40 35 36 0 40 3 40 25 0 24 -2 25 -65 25 l-65 0 0 -85z"/>
<path d="M550 1247 c0 -13 15 -37 35 -57 19 -19 35 -38 35 -42 0 -4 -16 -8
-35 -8 -28 0 -35 -4 -35 -20 0 -18 7 -20 80 -20 95 0 99 8 44 75 l-35 44 33 3
c25 2 33 8 33 23 0 18 -8 20 -77 23 -76 3 -78 2 -78 -21z"/>
<path d="M740 1249 c0 -12 17 -40 37 -63 l38 -41 -38 -3 c-29 -3 -37 -7 -37
-23 0 -17 7 -19 75 -19 71 0 75 1 75 22 0 12 -17 39 -37 60 l-37 38 37 0 c33
0 37 3 37 25 0 24 -2 25 -75 25 -70 0 -75 -1 -75 -21z"/>
<path d="M200 1008 c0 -30 79 -891 82 -893 8 -6 345 -95 360 -95 15 0 348 89
356 95 3 2 82 863 82 893 0 9 -95 12 -440 12 -345 0 -440 -3 -440 -12z m800
-85 c-2 -68 -66 -743 -72 -748 -5 -5 -272 -85 -285 -85 -2 0 -3 27 -3 59 0 68
13 59 -147 102 l-82 22 -6 56 c-3 31 -7 71 -10 89 l-4 32 59 0 59 0 6 -44 7
-44 59 -15 59 -15 0 84 0 83 -62 3 -63 3 -3 58 -3 57 66 0 65 0 0 55 0 55
-134 0 -133 0 -7 31 c-3 17 -6 44 -6 60 l0 29 140 0 140 0 0 50 0 50 180 0
180 0 0 -27z"/>
</g>
</svg>
