<?xml version="1.0" standalone="yes"?>
<svg xmlns="http://www.w3.org/2000/svg" width="64" height="64">
<path style="fill:#010101; stroke:none;" d="M0 0L0 29L20 9L21 9C25.3593 15.2197 30.6489 20.9492 30.9807 29C31.161 33.3753 27.1261 44.6613 29.0471 47.6813C30.9757 50.7133 35.3011 49.1979 35.8434 45.9414C36.8707 39.7719 34 29.8135 34 23C37.3156 26.3552 39.7586 32.7967 43.3125 35.338C46.511 37.625 50.6722 33.8429 48.7623 30.4282C42.6653 19.5273 19.1537 14.4629 29 0L0 0z"/>
<path style="fill:#f13d2f; stroke:none;" d="M34 24C34 30.726 36.2424 39.2677 35.5741 45.5556C35.2231 48.8577 30.6654 50.059 29.1713 46.8472C27.9344 44.1883 30.711 40.7187 30.9421 37.9606C31.5648 30.5289 30.9474 23.6949 27.5401 17.0008C20.7795 3.71851 1.92314 21.549 0.376543 31C-0.302459 35.1492 3.40652 38.3522 6.00463 41C11.2986 46.3952 25.5225 66.1361 34 63.3773C39.0721 61.7267 43.3477 55.6523 47 52C51.7591 47.2409 62.4834 39.9668 63.6235 33C64.3025 28.8508 60.5935 25.6478 57.9954 23C51.4095 16.2881 43.5232 5.134 35 1.03241C31.0528 -0.867096 24.2068 2.09579 24.2068 7.00077C24.2068 12.543 31.4159 13.6211 34.4961 16.5841C37.2419 19.2254 37.8716 23.1351 41.0224 25.6867C43.3296 27.5552 49.6323 28.8644 48.5386 32.9452C46.3016 41.2918 36.9786 25.4056 34 24z"/>
<path style="fill:#010101; stroke:none;" d="M35 0C42.2371 10.2739 53.7261 21.7629 64 29L64 0L35 0z"/>
<path style="fill:#ff2b2b; stroke:none;" d="M20 9L21 10L20 9z"/>
<path style="fill:#ff0101; stroke:none;" d="M34 15L35 16L34 15z"/>
<path style="fill:#ff4b4b; stroke:none;" d="M36.3333 18.6667L36.6667 19.3333L36.3333 18.6667M34 23L35 24L34 23M47 28L48 29L47 28z"/>
<path style="fill:#010101; stroke:none;" d="M0 35L0 64L29 64C21.7629 53.7261 10.2739 42.2371 0 35z"/>
<path style="fill:#ff2b2b; stroke:none;" d="M42 35L43 36L42 35z"/>
<path style="fill:#010101; stroke:none;" d="M63 35L35 64L64 64L63 35z"/>
</svg>
