<?xml version="1.0" standalone="yes"?>
<svg xmlns="http://www.w3.org/2000/svg" width="128" height="128">
<path style="fill:#010101; stroke:none;" d="M0 0L0 128L128 128L128 0L0 0z"/>
<path style="fill:#e85428; stroke:none;" d="M19 26C24.3239 54.677 26.9807 87.8309 27 117L64 126.631L101 117C101.019 87.8208 103.674 54.6863 109 26L19 26z"/>
<path style="fill:#ff0101; stroke:none;" d="M19 28L20 29L19 28M108 28L109 29L108 28z"/>
<path style="fill:#ef9270; stroke:none;" d="M20 39L21 40L20 39M107 39L108 40L107 39M36 44L36 50L37 50L37 45L91 45L91 51L92 51L92 44L36 44z"/>
<path style="fill:#f5f1f0; stroke:none;" d="M37 45L39 78L78 78C76.9951 82.221 78.1572 89.1449 74.5664 92.1458C66.2482 99.0975 51.1315 95.1228 51 84L40 84L41 101L64 106.642L87 101L90 67L49 67C48.9766 64.1343 47.6353 58.9114 49.6929 56.6034C52.1613 53.8346 58.7525 54.9023 62 55.2855C67.3908 55.9216 86.2546 59.0895 89.9722 54.3966C91.7688 52.1287 90.9997 47.7031 91 45L37 45z"/>
<path style="fill:#ef9270; stroke:none;" d="M49 55L49 56L64 56L49 55M90 55L91 56L90 55M37 56L37 62L38 62L37 56M48 56L48 60L49 60L48 56M49 66L50 67L49 66M38 67L38 73L39 73L38 67M89 68L89 73L90 73L89 68M77.3333 78.6667L77.6667 79.3333L77.3333 78.6667M88 79L88 85L89 85L88 79M40 83L40 84L51 84L40 83z"/>
<path style="fill:#ff0101; stroke:none;" d="M24 84L25 85L24 84M103 84L104 85L103 84z"/>
<path style="fill:#ef9270; stroke:none;" d="M76 86L76 91L77 91L76 86M51 88L51 92L52 92L51 88M40 90L40 95L41 95L40 90M87 90L87 96L88 96L87 90M52 92L53 93L52 92M74.6667 92.3333L75.3333 92.6667L74.6667 92.3333M55.6667 93.3333L56.3333 93.6667L55.6667 93.3333M71.6667 93.3333L72.3333 93.6667L71.6667 93.3333M59.6667 94.3333L60.3333 94.6667L59.6667 94.3333M67.6667 94.3333L68.3333 94.6667L67.6667 94.3333M62 95L62 96L65 96L62 95M102 95L103 96L102 95M42.6667 101.333L43.3333 101.667L42.6667 101.333M84.6667 101.333L85.3333 101.667L84.6667 101.333M46.6667 102.333L47.3333 102.667L46.6667 102.333M81.6667 102.333L82.3333 102.667L81.6667 102.333M50 103L51 104L50 103M77.6667 103.333L78.3333 103.667L77.6667 103.333M53.6667 104.333L54.3333 104.667L53.6667 104.333M73.6667 104.333L74.3333 104.667L73.6667 104.333M57.6667 105.333L58.3333 105.667L57.6667 105.333M70.6667 105.333L71.3333 105.667L70.6667 105.333M60.6667 106.333L61.3333 106.667L60.6667 106.333M66.6667 106.333L67.3333 106.667L66.6667 106.333z"/>
<path style="fill:#ff0101; stroke:none;" d="M94 118L95 119L94 118M76 123L77 124L76 123z"/>
</svg>
