<?xml version="1.0" standalone="yes"?>
<svg xmlns="http://www.w3.org/2000/svg" width="128" height="128">
<path style="fill:#050403; stroke:none;" d="M0 0L0 128L128 128L128 0L0 0z"/>
<path style="fill:#49a33b; stroke:none;" d="M63 3C59.0115 10.6884 51.8554 16.0318 47.9815 24C38.3791 43.7509 41.6447 73.1357 62 85L64 75L65 75L67 84C74.824 81.318 79.975 72.4879 82.652 65C90.6827 42.5373 79.7908 18.3325 63 3z"/>
<path style="fill:#96765b; stroke:none;" d="M81 29L82 30L81 29M43 38L44 39L43 38z"/>
<path style="fill:#8f925b; stroke:none;" d="M64 75L63 81L64 81L64 75z"/>
<path style="fill:#c2c2a8; stroke:none;" d="M64 79C62.4291 84.6032 60.3208 94.3151 67 97C66.7654 90.4792 68.1766 84.4936 64 79z"/>
<path style="fill:#8f925b; stroke:none;" d="M65 81L66 82L65 81M62 84L63 85L62 84z"/>
<path style="fill:#96765b; stroke:none;" d="M87 99L90 101L87 118C92.0502 118 98.466 119.005 102.867 115.991C107.869 112.564 108.475 103.406 102.867 100.179C98.6419 97.7481 91.7107 99 87 99M108 99C110.516 105.566 110.516 111.434 108 118C111.923 118 117.338 118.903 120.852 116.821C124.977 114.377 124.534 102.635 120.678 100.028C117.538 97.9046 111.621 99 108 99z"/>
<path style="fill:#050403; stroke:none;" d="M94 101L94.0008 108.001C94.1141 124.29 112.217 103.035 94 101M114 101L114 106L119 102L114 101z"/>
<path style="fill:#96765b; stroke:none;" d="M31 105L32 106L31 105M48 105L49 106L48 105M68 105L69 106L68 105M32 107L33 108L32 107M28 108L29 109L28 108z"/>
<path style="fill:#050403; stroke:none;" d="M114 109C114.371 120.298 124.215 110.176 114 109z"/>
<path style="fill:#96765b; stroke:none;" d="M65 111L66 112L65 111M37 113L38 114L37 113M28 114L29 115L28 114M32 114L33 115L32 114M13 115L14 116L13 115M18 116L19 117L18 116M59 116L61 118L59 116M37 117L38 118L37 117M75 117L76 118L75 117M63 118L64 119L63 118M65 118L66 119L65 118M66 122L67 123L66 122z"/>
</svg>
