<?xml version="1.0" standalone="yes"?>
<svg xmlns="http://www.w3.org/2000/svg" width="128" height="128">
<path style="fill:#010101; stroke:none;" d="M0 0C0 3.64577 -1.04308 9.27811 1.02778 12.4707C6.95314 21.6056 27.543 28.7525 37 34.1505C40.4547 36.1224 44.7912 39.7008 49 39.1481C54.2064 38.4645 59.5332 33.8259 64 31.2809C74.6592 25.2076 85.174 18.7619 96 13L96 53C96 57.3936 97.3894 64.7538 94.9722 68.6211C90.4336 75.8826 73.6749 82.4167 66 86L66 88C70.1914 89.9569 75.2431 94.4506 80 94.4506C86.4882 94.4506 106.455 82.8936 109.972 77.4707C113.178 72.5288 109.047 65.3118 112.028 60.2099C115.223 54.7401 123.521 54.524 126.972 49.3904C129.559 45.5419 128 37.4794 128 33L111 41L112.028 23.3287L126.972 12.4715L128 0L0 0z"/>
<path style="fill:#1fa3c9; stroke:none;" d="M0 13L0 52L1.02778 68.787L17 78L17 42L48 60L46.9722 40.3897L34 31.9892L0 13z"/>
<path style="fill:#0101ff; stroke:none;" d="M94 13L95 14L94 13z"/>
<path style="fill:#1d7fb7; stroke:none;" d="M95 13L62 31.9892L49.0278 40.3897L48 60L80 42C80 46.5484 81.3533 53.7451 78.9722 57.787C74.1439 65.9832 56.104 72.0392 48 77C61.1221 89.2873 69.1601 85.0502 83 77.1505C86.6661 75.0579 93.5306 72.6697 95.3966 68.6211C97.2023 64.7033 96 58.2346 96 54C96 42.318 99.5075 23.7419 95 13M111 41C128.043 37.7136 128 27.5132 128 13C112.041 18.8427 111 25.4512 111 41z"/>
<path style="fill:#01ffff; stroke:none;" d="M15 21L16 22L15 21z"/>
<path style="fill:#1d7fb7; stroke:none;" d="M34 32L35 33L34 32z"/>
<path style="fill:#0101ff; stroke:none;" d="M61 32L62 33L61 32M124 34L125 35L124 34z"/>
<path style="fill:#01ffff; stroke:none;" d="M41 36L42 37L41 36z"/>
<path style="fill:#0101ff; stroke:none;" d="M117 38L118 39L117 38z"/>
<path style="fill:#01ffff; stroke:none;" d="M17 42L18 43L17 42z"/>
<path style="fill:#010101; stroke:none;" d="M79 42C71.7155 46.2959 55.5487 59.9028 47 58.6127C36.4758 57.0244 27.3717 46.0508 17 43L17 78L0 69L0 128L128 128L128 88C116.484 92.8198 105.818 100.219 95 106.421C90.8666 108.791 85.7988 112.976 81 113.64C76.2424 114.299 70.9064 109.818 67 107.579C55.846 101.184 42.2937 94.8026 48.6034 79.0934C55.0582 63.0227 89.5912 67.2401 79 42z"/>
<path style="fill:#1d7fb7; stroke:none;" d="M24 46L25 47L24 46z"/>
<path style="fill:#0101ff; stroke:none;" d="M66 49L67 50L66 49z"/>
<path style="fill:#1d7fb7; stroke:none;" d="M80 115C92.1888 109.898 103.543 101.99 115 95.4213C118.764 93.2632 125.52 90.8757 127.397 86.6713C131.452 77.5861 128 59.9592 128 50C123.024 51.5747 112.848 55.5799 111.318 61.1042C109.922 66.1441 112.963 73.1156 109.397 77.4707C102.606 85.7617 86.8576 86.5417 81.0278 95.5293C78.112 100.025 80 109.784 80 115z"/>
<path style="fill:#01ffff; stroke:none;" d="M43 57L44 58L43 57z"/>
<path style="fill:#1d7fb7; stroke:none;" d="M7 73L8 74L7 73z"/>
<path style="fill:#0101ff; stroke:none;" d="M52 74L53 75L52 74z"/>
<path style="fill:#1fa3c9; stroke:none;" d="M48 78C48 83.1785 46.5329 90.984 48.6034 95.7901C51.8985 103.439 72.4936 111.858 80 115C80 109.648 81.6026 101.263 79.3966 96.3287C76.1505 89.0677 55.2931 80.6548 48 78z"/>
<path style="fill:#0101ff; stroke:none;" d="M126 88L127 89L126 88z"/>
<path style="fill:#01ffff; stroke:none;" d="M52 99L53 100L52 99M59 103L60 104L59 103z"/>
<path style="fill:#0101ff; stroke:none;" d="M100 103L101 104L100 103z"/>
<path style="fill:#1d7fb7; stroke:none;" d="M66 107L67 108L66 107z"/>
</svg>
